<svg width="13" height="24" viewBox="0 0 13 24" fill="none" xmlns="http://www.w3.org/2000/svg">
<path d="M12.2143 22.4824L12.5659 22.8379L11.8549 23.5411L11.5033 23.1856L12.2143 22.4824ZM0.78903 12.3522L0.437436 11.9967L1.14844 11.2936L1.50003 11.6491L0.78903 12.3522ZM11.5033 23.1856L0.78903 12.3522L1.50003 11.6491L12.2143 22.4824L11.5033 23.1856Z" fill="#111111"/>
<path d="M1.50003 12.3516L1.14844 12.7071L0.437435 12.0039L0.78903 11.6484L1.50003 12.3516ZM11.5033 0.815072L11.8549 0.45957L12.5659 1.16276L12.2143 1.51826L11.5033 0.815072ZM0.78903 11.6484L11.5033 0.815072L12.2143 1.51826L1.50003 12.3516L0.78903 11.6484Z" fill="#111111"/>
</svg>
