<svg width="30" height="30" viewBox="0 0 30 30" fill="none" xmlns="http://www.w3.org/2000/svg">
<mask id="path-1-inside-1_53_4373" fill="white">
<path d="M15 0L0 15L15 30L30 15L15 0Z"/>
</mask>
<path d="M9.51487 15.3536C9.31961 15.1583 9.31961 14.8417 9.51487 14.6464L12.6968 11.4645C12.8921 11.2692 13.2087 11.2692 13.404 11.4645C13.5992 11.6597 13.5992 11.9763 13.404 12.1716L10.5755 15L13.404 17.8284C13.5992 18.0237 13.5992 18.3403 13.404 18.5355C13.2087 18.7308 12.8921 18.7308 12.6968 18.5355L9.51487 15.3536ZM22.5 15.5H9.86842V14.5H22.5V15.5ZM15 0L14.2929 -0.707107L15 -1.41421L15.7071 -0.707107L15 0ZM0 15L-0.707108 15.7071L-1.41421 15L-0.707108 14.2929L0 15ZM15 30L15.7071 30.7071L15 31.4142L14.2929 30.7071L15 30ZM30 15L30.7071 14.2929L31.4142 15L30.7071 15.7071L30 15ZM15.7071 0.707107L0.707106 15.7071L-0.707108 14.2929L14.2929 -0.707107L15.7071 0.707107ZM0.707106 14.2929L15.7071 29.2929L14.2929 30.7071L-0.707108 15.7071L0.707106 14.2929ZM14.2929 29.2929L29.2929 14.2929L30.7071 15.7071L15.7071 30.7071L14.2929 29.2929ZM29.2929 15.7071L14.2929 0.707107L15.7071 -0.707107L30.7071 14.2929L29.2929 15.7071Z" mask="url(#path-1-inside-1_53_4373)"/>
</svg>
