<svg width="71" height="70" viewBox="0 0 71 70" fill="none" xmlns="http://www.w3.org/2000/svg">
<mask id="path-1-inside-1_53_338" fill="white">
<path d="M35.3672 0L70.3672 35L35.3672 70L0.367188 35L35.3672 0Z"/>
</mask>
<path d="M47.6368 35.1851C47.8321 34.9898 47.8321 34.6733 47.6368 34.478L44.4548 31.296C44.2596 31.1008 43.943 31.1008 43.7477 31.296C43.5525 31.4913 43.5525 31.8079 43.7477 32.0031L46.5761 34.8316L43.7477 37.66C43.5525 37.8552 43.5525 38.1718 43.7477 38.3671C43.943 38.5624 44.2596 38.5624 44.4548 38.3671L47.6368 35.1851ZM17.9514 35.3316L47.2832 35.3316V34.3316L17.9514 34.3316V35.3316ZM35.3672 0L36.0743 -0.707107L35.3672 -1.41421L34.6601 -0.707107L35.3672 0ZM70.3672 35L71.0743 35.7071L71.7814 35L71.0743 34.2929L70.3672 35ZM35.3672 70L34.6601 70.7071L35.3672 71.4142L36.0743 70.7071L35.3672 70ZM0.367188 35L-0.339919 34.2929L-1.04703 35L-0.339919 35.7071L0.367188 35ZM34.6601 0.707107L69.6601 35.7071L71.0743 34.2929L36.0743 -0.707107L34.6601 0.707107ZM69.6601 34.2929L34.6601 69.2929L36.0743 70.7071L71.0743 35.7071L69.6601 34.2929ZM36.0743 69.2929L1.07429 34.2929L-0.339919 35.7071L34.6601 70.7071L36.0743 69.2929ZM1.07429 35.7071L36.0743 0.707107L34.6601 -0.707107L-0.339919 34.2929L1.07429 35.7071Z" fill="#111111" mask="url(#path-1-inside-1_53_338)"/>
</svg>
