<svg width="30" height="30" viewBox="0 0 30 30" fill="none" xmlns="http://www.w3.org/2000/svg">
<!-- <mask id="path-1-inside-1_53_4371" fill="white"> -->
<path d="M15 0L30 15L15 30L0 15L15 0Z"/>
</mask>
<path d="M20.4851 15.3536C20.6804 15.1583 20.6804 14.8417 20.4851 14.6464L17.3032 11.4645C17.1079 11.2692 16.7913 11.2692 16.596 11.4645C16.4008 11.6597 16.4008 11.9763 16.596 12.1716L19.4245 15L16.596 17.8284C16.4008 18.0237 16.4008 18.3403 16.596 18.5355C16.7913 18.7308 17.1079 18.7308 17.3032 18.5355L20.4851 15.3536ZM7.5 15.5H20.1316V14.5H7.5V15.5ZM15 0L15.7071 -0.707107L15 -1.41421L14.2929 -0.707107L15 0ZM30 15L30.7071 15.7071L31.4142 15L30.7071 14.2929L30 15ZM15 30L14.2929 30.7071L15 31.4142L15.7071 30.7071L15 30ZM0 15L-0.707107 14.2929L-1.41421 15L-0.707107 15.7071L0 15ZM14.2929 0.707107L29.2929 15.7071L30.7071 14.2929L15.7071 -0.707107L14.2929 0.707107ZM29.2929 14.2929L14.2929 29.2929L15.7071 30.7071L30.7071 15.7071L29.2929 14.2929ZM15.7071 29.2929L0.707107 14.2929L-0.707107 15.7071L14.2929 30.7071L15.7071 29.2929ZM0.707107 15.7071L15.7071 0.707107L14.2929 -0.707107L-0.707107 14.2929L0.707107 15.7071Z" mask="url(#path-1-inside-1_53_4371)"/>
</svg>
