<svg width="70" height="70" viewBox="0 0 70 70" fill="none" xmlns="http://www.w3.org/2000/svg">
<mask id="path-1-inside-1_53_336" fill="white">
<path d="M35 70L0 35L35 0L70 35L35 70Z"/>
</mask>
<path d="M22.7304 34.8149C22.5351 35.0101 22.5351 35.3267 22.7304 35.522L25.9124 38.704C26.1076 38.8992 26.4242 38.8992 26.6195 38.704C26.8147 38.5087 26.8147 38.1921 26.6195 37.9969L23.791 35.1684L26.6195 32.34C26.8147 32.1447 26.8147 31.8282 26.6195 31.6329C26.4242 31.4376 26.1076 31.4376 25.9124 31.6329L22.7304 34.8149ZM52.4158 34.6684L23.0839 34.6684V35.6684L52.4158 35.6684V34.6684ZM35 70L34.2929 70.7071L35 71.4142L35.7071 70.7071L35 70ZM0 35L-0.707107 34.2929L-1.41421 35L-0.707107 35.7071L0 35ZM35 0L35.7071 -0.707107L35 -1.41421L34.2929 -0.707107L35 0ZM70 35L70.7071 35.7071L71.4142 35L70.7071 34.2929L70 35ZM35.7071 69.2929L0.707107 34.2929L-0.707107 35.7071L34.2929 70.7071L35.7071 69.2929ZM0.707107 35.7071L35.7071 0.707107L34.2929 -0.707107L-0.707107 34.2929L0.707107 35.7071ZM34.2929 0.707107L69.2929 35.7071L70.7071 34.2929L35.7071 -0.707107L34.2929 0.707107ZM69.2929 34.2929L34.2929 69.2929L35.7071 70.7071L70.7071 35.7071L69.2929 34.2929Z" fill="#111111" mask="url(#path-1-inside-1_53_336)"/>
</svg>
