<svg width="16" height="16" viewBox="0 0 16 16" fill="none" xmlns="http://www.w3.org/2000/svg">
<path d="M11.9403 11.2239C13.0149 10.0299 13.4925 8.35821 13.4925 6.80597C13.4925 5.01493 12.8955 3.34328 11.4627 2.02985C10.2687 0.716418 8.59702 0 6.80597 0C5.01493 0 3.22388 0.716418 2.02985 2.02985C0.716418 3.22388 0 5.01493 0 6.80597C0 8.59702 0.716418 10.3881 2.02985 11.5821C3.34328 12.8955 5.13433 13.6119 6.80597 13.6119C8.35821 13.6119 9.91045 13.1343 11.2239 12.0597L15.1642 16L16 15.1642L11.9403 11.2239ZM2.86567 10.7463C1.79105 9.67164 1.19403 8.35821 1.19403 6.80597C1.19403 5.25373 1.79105 3.9403 2.86567 2.86567C3.9403 1.79105 5.25373 1.19403 6.80597 1.19403C8.35821 1.19403 9.67164 1.79105 10.7463 2.86567C12.8955 5.01493 12.8955 8.59702 10.7463 10.7463C8.59702 12.8955 5.01493 12.8955 2.86567 10.7463Z" fill="black"/>
</svg>
