<svg width="24" height="24" viewBox="0 0 24 24" fill="none" xmlns="http://www.w3.org/2000/svg">
<path d="M12 24C18.6274 24 24 18.6274 24 12C24 5.37258 18.6274 0 12 0C5.37258 0 0 5.37258 0 12C0 18.6274 5.37258 24 12 24Z" fill="#37AEE2"/>
<path d="M9.79922 17.5C9.41046 17.5 9.47652 17.3532 9.34244 16.9831L8.19922 13.2206L16.9992 8" fill="#C8DAEA"/>
<path d="M9.80078 17.5007C10.1008 17.5007 10.2333 17.3635 10.4008 17.2007L12.0008 15.6449L10.005 14.4414" fill="#A9C9DD"/>
<path d="M10.0047 14.4417L14.8407 18.0146C15.3926 18.3191 15.7908 18.1615 15.9283 17.5023L17.8968 8.22597C18.0983 7.41795 17.5888 7.05147 17.0609 7.29115L5.50186 11.7483C4.71285 12.0647 4.71745 12.5049 5.35804 12.7011L8.32434 13.6269L15.1916 9.29438C15.5158 9.09779 15.8134 9.20349 15.5692 9.42022" fill="url(#paint0_linear_681_1833)"/>
<defs>
<linearGradient id="paint0_linear_681_1833" x1="10.4985" y1="12.7378" x2="11.7807" y2="16.8853" gradientUnits="userSpaceOnUse">
<stop stop-color="#EFF7FC"/>
<stop offset="1" stop-color="white"/>
</linearGradient>
</defs>
</svg>
