<svg width="24" height="24" viewBox="0 0 24 24" fill="none" xmlns="http://www.w3.org/2000/svg">
<path d="M12 0C18.6274 0 24 5.37258 24 12C24 18.6274 18.6274 24 12 24C5.37258 24 0 18.6274 0 12C0 5.37258 5.37258 0 12 0Z" fill="#7F4DA0"/>
<path d="M15.1965 10.4794C15.1381 10.0053 14.9924 9.63298 14.7335 9.3032C14.3975 8.87856 13.968 8.62428 13.3322 8.47344C12.9178 8.3729 12.7504 8.38444 12.6005 8.52134C12.4609 8.6496 12.4336 8.90672 12.5403 9.07322C12.6153 9.19407 12.7019 9.23737 12.9426 9.28461C13.2632 9.34359 13.4847 9.42014 13.6862 9.53536C14.1139 9.78233 14.3131 10.1688 14.3344 10.7945C14.3444 11.0882 14.3698 11.1786 14.4724 11.2828C14.6626 11.4732 15.001 11.4362 15.1446 11.2082C15.1973 11.1223 15.2053 11.085 15.2109 10.8855C15.2145 10.762 15.2092 10.5781 15.1965 10.4794Z" fill="white"/>
<path d="M16.8726 11.0129C16.7882 9.5602 16.22 8.39145 15.2031 7.56913C14.6301 7.10708 13.9376 6.78935 13.1785 6.63484C12.9004 6.57958 12.3884 6.53478 12.3006 6.56041C12.2177 6.58413 12.1004 6.67388 12.0482 6.75504C11.9929 6.84305 11.9805 7.03955 12.0276 7.15321C12.1037 7.34323 12.2452 7.41036 12.6416 7.44504C13.2527 7.4985 13.8829 7.71318 14.3591 8.031C14.9028 8.39286 15.335 8.88781 15.6145 9.46942C15.8561 9.96914 16.0047 10.6893 16.0005 11.3342C15.9992 11.5674 16.0352 11.6991 16.129 11.7954C16.2706 11.9435 16.477 11.9759 16.6591 11.8776C16.861 11.7714 16.9082 11.5851 16.8726 11.0129Z" fill="white"/>
<path d="M18.727 16.6079C18.6986 16.5249 18.6323 16.3968 18.5849 16.3233C18.2865 15.8727 16.6832 14.6179 15.8827 14.2075C15.4256 13.9727 15.0869 13.8945 14.8359 13.968C14.5659 14.0439 14.4238 14.1696 13.9714 14.7317C13.7891 14.9571 13.602 15.1682 13.5522 15.2014C13.4291 15.2868 13.1875 15.3556 13.017 15.3556C12.6215 15.3532 11.9038 15.097 11.352 14.7602C10.9233 14.4993 10.3739 14.032 9.95233 13.5695C9.45496 13.0263 9.11633 12.5472 8.84868 12.0064C8.50292 11.3114 8.41529 10.8868 8.55974 10.5761C8.59527 10.4978 8.64265 10.4148 8.66393 10.3887C8.68526 10.365 8.9079 10.1824 9.15418 9.98312C9.63735 9.59889 9.71549 9.51113 9.80548 9.24784C9.91916 8.91338 9.88839 8.57183 9.71313 8.22791C9.57812 7.96699 9.22524 7.39773 8.96947 7.03009C8.6308 6.54623 7.78767 5.51207 7.61949 5.37209C7.31635 5.12543 6.92797 5.08271 6.49926 5.24878C6.04695 5.42431 5.19906 6.10741 4.83669 6.58418C4.50986 7.01586 4.38438 7.32183 4.36541 7.72506C4.34884 8.05711 4.37725 8.19469 4.55252 8.61928C5.92379 11.9495 7.97001 14.6084 10.7813 16.7194C12.2496 17.8224 13.7725 18.662 15.3521 19.2361C16.2734 19.5705 16.6737 19.5871 17.145 19.312C17.3439 19.1933 17.8365 18.6881 18.1112 18.3205C18.566 17.7085 18.7341 17.4263 18.7815 17.2009C18.8147 17.0468 18.7886 16.7787 18.727 16.6079Z" fill="white"/>
<path d="M18.5773 11.3482C18.547 10.5265 18.4087 9.8525 18.1202 9.10103C17.8354 8.36184 17.5471 7.87948 17.0027 7.22707C16.488 6.61536 16.0883 6.26608 15.4543 5.87729C14.5697 5.3356 13.4932 4.97712 12.2868 4.82636C11.8754 4.77367 11.7823 4.77744 11.6561 4.86166C11.4115 5.0212 11.4148 5.41913 11.6601 5.57629C11.7413 5.62628 11.8134 5.64449 12.1425 5.68756C12.6477 5.75558 12.9725 5.81968 13.358 5.92485C14.8695 6.33804 16.0319 7.18261 16.809 8.43634C17.4593 9.48133 17.7292 10.5264 17.6909 11.8611C17.6776 12.3124 17.6872 12.3918 17.7562 12.5002C17.8883 12.7023 18.2367 12.7422 18.4154 12.5746C18.5266 12.4724 18.5475 12.3956 18.5694 12.0094C18.5799 11.808 18.5822 11.5106 18.5773 11.3482Z" fill="white"/>
</svg>
