<svg width="78" height="77" viewBox="0 0 78 77" fill="none" xmlns="http://www.w3.org/2000/svg">
<rect x="-5.96046e-08" y="-0.707107" width="53" height="53" transform="matrix(0.707107 -0.707107 -0.707107 -0.707107 38.5 75.1601)" stroke="#ED6726"/>
<g clip-path="url(#clip0_407_3017)">
<path d="M48.6579 38.7754C48.4634 38.7754 48.3057 38.9331 48.3057 39.1277V48.6471C48.3057 49.0049 48.0146 49.2959 47.6568 49.2959H39.3613C39.0035 49.2959 38.7125 49.0048 38.7125 48.6471V47.7108C38.7125 47.5163 38.5547 47.3586 38.3602 47.3586C38.1657 47.3586 38.0079 47.5163 38.0079 47.7108V48.6471C38.0079 48.8821 38.0682 49.1032 38.174 49.2959H27.443C27.3783 49.2959 27.3256 49.2432 27.3256 49.1785V40.6802C27.3256 40.4856 27.1679 40.3279 26.9734 40.3279C26.7788 40.3279 26.6211 40.4856 26.6211 40.6802V49.1785C26.6211 49.6317 26.9898 50.0005 27.443 50.0005H47.6567C48.403 50.0005 49.0101 49.3933 49.0101 48.6471V39.1277C49.0101 38.9331 48.8525 38.7754 48.6579 38.7754Z" fill="black"/>
<path d="M47.6567 33.5648H44.2516V30.7172C44.2518 30.6247 44.2138 30.5334 44.1484 30.4681L39.7835 26.1032C39.7182 26.0378 39.6269 25.9998 39.5344 26H27.443C26.9898 26 26.6211 26.3687 26.6211 26.8219V39.2707C26.6211 39.4652 26.7788 39.623 26.9734 39.623C27.1679 39.623 27.3256 39.4652 27.3256 39.2707V26.8219C27.3256 26.7572 27.3783 26.7045 27.443 26.7045H39.1821V29.7778C39.1821 30.49 39.7616 31.0694 40.4737 31.0694H43.5471V33.5647H39.3613C38.615 33.5647 38.0079 34.1719 38.0079 34.9181V34.9732H32.426C32.2315 34.9732 32.0738 35.1309 32.0738 35.3255C32.0738 35.52 32.2315 35.6778 32.426 35.6778H38.0079V38.0705H32.426C32.2315 38.0705 32.0738 38.2282 32.0738 38.4227C32.0738 38.6173 32.2315 38.775 32.426 38.775H38.0079V41.1677H32.426C32.2315 41.1677 32.0738 41.3254 32.0738 41.5199C32.0738 41.7145 32.2315 41.8722 32.426 41.8722H38.0079V44.2649H32.426C32.2315 44.2649 32.0738 44.4226 32.0738 44.6172C32.0738 44.8118 32.2315 44.9695 32.426 44.9695H38.0079V46.3015C38.0079 46.496 38.1656 46.6537 38.3602 46.6537C38.5548 46.6537 38.7125 46.496 38.7125 46.3015V34.9181C38.7125 34.5603 39.0035 34.2693 39.3613 34.2693H47.6568C48.0146 34.2693 48.3057 34.5604 48.3057 34.9181V37.7182C48.3057 37.9127 48.4634 38.0705 48.6579 38.0705C48.8525 38.0705 49.0102 37.9128 49.0102 37.7182V34.9181C49.0101 34.1719 48.403 33.5648 47.6567 33.5648ZM39.8866 29.7778V27.2027L43.0489 30.365H40.4737C40.15 30.365 39.8866 30.1016 39.8866 29.7778Z" fill="black"/>
<path d="M47.2855 36.0114C47.2855 35.5582 46.9167 35.1895 46.4636 35.1895H40.6149C40.1617 35.1895 39.793 35.5582 39.793 36.0114V38.0003C39.793 38.4535 40.1617 38.8222 40.6149 38.8222H46.4636C46.9167 38.8222 47.2855 38.4535 47.2855 38.0003V36.0114ZM46.581 38.0002C46.581 38.065 46.5283 38.1176 46.4636 38.1176H40.6149C40.5501 38.1176 40.4975 38.065 40.4975 38.0002V36.0113C40.4975 35.9466 40.5501 35.8939 40.6149 35.8939H46.4636C46.5283 35.8939 46.581 35.9466 46.581 36.0113V38.0002Z" fill="black"/>
<path d="M39.793 41.715C39.793 42.1487 40.1458 42.5015 40.5794 42.5015H41.2502C41.6838 42.5015 42.0366 42.1487 42.0366 41.715V41.0443C42.0366 40.6106 41.6838 40.2578 41.2502 40.2578H40.5794C40.1458 40.2578 39.793 40.6106 39.793 41.0443V41.715ZM40.4975 41.0443C40.4975 40.9991 40.5342 40.9623 40.5794 40.9623H41.2502C41.2954 40.9623 41.3322 40.9991 41.3322 41.0443V41.7151C41.3322 41.7603 41.2954 41.797 41.2502 41.797H40.5794C40.5342 41.797 40.4975 41.7603 40.4975 41.7151V41.0443Z" fill="black"/>
<path d="M44.6616 41.0443C44.6616 40.6106 44.3088 40.2578 43.8752 40.2578H43.2044C42.7708 40.2578 42.418 40.6106 42.418 41.0443V41.715C42.418 42.1487 42.7708 42.5015 43.2044 42.5015H43.8752C44.3088 42.5015 44.6616 42.1487 44.6616 41.715V41.0443ZM43.9571 41.715C43.9571 41.7602 43.9203 41.797 43.8751 41.797H43.2044C43.1592 41.797 43.1225 41.7602 43.1225 41.715V41.0442C43.1225 40.999 43.1592 40.9623 43.2044 40.9623H43.8752C43.9204 40.9623 43.9572 40.999 43.9572 41.0442V41.715H43.9571Z" fill="black"/>
<path d="M47.2866 41.0443C47.2866 40.6106 46.9338 40.2578 46.5002 40.2578H45.8294C45.3958 40.2578 45.043 40.6106 45.043 41.0443V41.715C45.043 42.1487 45.3958 42.5015 45.8294 42.5015H46.5002C46.9338 42.5015 47.2866 42.1487 47.2866 41.715V41.0443ZM46.5822 41.715C46.5822 41.7602 46.5454 41.797 46.5002 41.797H45.8294C45.7842 41.797 45.7475 41.7602 45.7475 41.715V41.0442C45.7475 40.999 45.7842 40.9623 45.8294 40.9623H46.5002C46.5454 40.9623 46.5822 40.999 46.5822 41.0442V41.715Z" fill="black"/>
<path d="M39.793 44.5861C39.793 45.0198 40.1458 45.3726 40.5794 45.3726H41.2502C41.6838 45.3726 42.0366 45.0198 42.0366 44.5861V43.9154C42.0366 43.4817 41.6838 43.1289 41.2502 43.1289H40.5794C40.1458 43.1289 39.793 43.4817 39.793 43.9154V44.5861ZM40.4975 43.9154C40.4975 43.8702 40.5342 43.8334 40.5794 43.8334H41.2502C41.2954 43.8334 41.3322 43.8701 41.3322 43.9154V44.5861C41.3322 44.6313 41.2954 44.6681 41.2502 44.6681H40.5794C40.5342 44.6681 40.4975 44.6313 40.4975 44.5861V43.9154Z" fill="black"/>
<path d="M44.6616 43.9154C44.6616 43.4817 44.3088 43.1289 43.8752 43.1289H43.2044C42.7708 43.1289 42.418 43.4817 42.418 43.9154V44.5861C42.418 45.0198 42.7708 45.3726 43.2044 45.3726H43.8752C44.3088 45.3726 44.6616 45.0198 44.6616 44.5861V43.9154ZM43.9571 44.5861C43.9571 44.6313 43.9203 44.6681 43.8751 44.6681H43.2044C43.1592 44.6681 43.1225 44.6313 43.1225 44.5861V43.9154C43.1225 43.8702 43.1592 43.8334 43.2044 43.8334H43.8752C43.9204 43.8334 43.9572 43.8701 43.9572 43.9154V44.5861H43.9571Z" fill="black"/>
<path d="M39.793 47.4592C39.793 47.8928 40.1458 48.2456 40.5794 48.2456H41.2502C41.6838 48.2456 42.0366 47.8928 42.0366 47.4592V46.7884C42.0366 46.3548 41.6838 46.002 41.2502 46.002H40.5794C40.1458 46.002 39.793 46.3547 39.793 46.7884V47.4592ZM40.4975 46.7885C40.4975 46.7433 40.5342 46.7065 40.5794 46.7065H41.2502C41.2954 46.7065 41.3322 46.7432 41.3322 46.7885V47.4592C41.3322 47.5044 41.2954 47.5412 41.2502 47.5412H40.5794C40.5342 47.5412 40.4975 47.5044 40.4975 47.4592V46.7885Z" fill="black"/>
<path d="M43.8751 46.002H43.2044C42.7708 46.002 42.418 46.3547 42.418 46.7884V47.4592C42.418 47.8928 42.7708 48.2456 43.2044 48.2456H43.8752C44.3088 48.2456 44.6616 47.8928 44.6616 47.4592V46.7884C44.6616 46.3547 44.3088 46.002 43.8751 46.002ZM43.9571 47.4591C43.9571 47.5043 43.9203 47.5411 43.8751 47.5411H43.2044C43.1592 47.5411 43.1225 47.5043 43.1225 47.4591V46.7884C43.1225 46.7432 43.1592 46.7064 43.2044 46.7064H43.8752C43.9204 46.7064 43.9572 46.7431 43.9572 46.7884V47.4591H43.9571Z" fill="black"/>
<path d="M46.4337 43.1289H45.896C45.4256 43.1289 45.043 43.5115 45.043 43.9819V47.3917C45.043 47.862 45.4256 48.2447 45.896 48.2447H46.4337C46.904 48.2447 47.2866 47.862 47.2866 47.3917V43.9819C47.2866 43.5115 46.904 43.1289 46.4337 43.1289ZM46.5822 47.3917C46.5822 47.4736 46.5155 47.5402 46.4337 47.5402H45.896C45.8141 47.5402 45.7475 47.4736 45.7475 47.3917V43.9819C45.7475 43.9 45.8141 43.8334 45.896 43.8334H46.4337C46.5155 43.8334 46.5822 43.9 46.5822 43.9819V47.3917Z" fill="black"/>
<path d="M29.4343 32.5795H30.8404C31.0349 32.5795 31.1927 32.4218 31.1927 32.2273C31.1927 32.0327 31.035 31.875 30.8404 31.875H29.4343C29.2398 31.875 29.082 32.0327 29.082 32.2273C29.082 32.4218 29.2398 32.5795 29.4343 32.5795Z" fill="black"/>
<path d="M32.4265 32.5795H39.206C39.4005 32.5795 39.5583 32.4218 39.5583 32.2273C39.5583 32.0327 39.4005 31.875 39.206 31.875H32.4265C32.232 31.875 32.0742 32.0327 32.0742 32.2273C32.0743 32.4218 32.232 32.5795 32.4265 32.5795Z" fill="black"/>
<path d="M29.4343 35.6772H30.8404C31.0349 35.6772 31.1927 35.5195 31.1927 35.3249C31.1927 35.1304 31.035 34.9727 30.8404 34.9727H29.4343C29.2398 34.9727 29.082 35.1303 29.082 35.3249C29.082 35.5195 29.2398 35.6772 29.4343 35.6772Z" fill="black"/>
<path d="M29.4343 38.7748H30.8404C31.0349 38.7748 31.1927 38.6171 31.1927 38.4226C31.1927 38.228 31.035 38.0703 30.8404 38.0703H29.4343C29.2398 38.0703 29.082 38.228 29.082 38.4226C29.082 38.6171 29.2398 38.7748 29.4343 38.7748Z" fill="black"/>
<path d="M29.4343 41.8725H30.8404C31.0349 41.8725 31.1927 41.7148 31.1927 41.5202C31.1927 41.3257 31.035 41.168 30.8404 41.168H29.4343C29.2398 41.168 29.082 41.3257 29.082 41.5202C29.082 41.7148 29.2398 41.8725 29.4343 41.8725Z" fill="black"/>
<path d="M29.4343 44.9702H30.8404C31.0349 44.9702 31.1927 44.8125 31.1927 44.6179C31.1927 44.4233 31.035 44.2656 30.8404 44.2656H29.4343C29.2398 44.2656 29.082 44.4233 29.082 44.6179C29.082 44.8125 29.2398 44.9702 29.4343 44.9702Z" fill="black"/>
</g>
<defs>
<clipPath id="clip0_407_3017">
<rect width="24" height="24" fill="white" transform="translate(25.8164 26)"/>
</clipPath>
</defs>
</svg>
