<svg width="50" height="50" viewBox="0 0 50 50" fill="none" xmlns="http://www.w3.org/2000/svg">
<rect x="-5.96046e-08" y="-0.707107" width="34.3553" height="34.3553" transform="matrix(0.707107 -0.707107 -0.707107 -0.707107 24.5 48.7929)" fill="white" stroke="black"/>
<path d="M33.8635 24.7675C34.0587 24.9628 34.0587 25.2794 33.8635 25.4746L30.6815 28.6566C30.4862 28.8519 30.1696 28.8519 29.9744 28.6566C29.7791 28.4614 29.7791 28.1448 29.9744 27.9495L32.8028 25.1211L29.9744 22.2927C29.7791 22.0974 29.7791 21.7808 29.9744 21.5856C30.1696 21.3903 30.4862 21.3903 30.6815 21.5856L33.8635 24.7675ZM12.5586 24.6211L33.5099 24.6211L33.5099 25.6211L12.5586 25.6211L12.5586 24.6211Z" fill="black"/>
</svg>
